<svg xmlns="http://www.w3.org/2000/svg" viewBox="0 0 9600 9600"><path fill="#3276BC" d="M936 4334c86,-63 215,-289 309,-396 131,-148 211,-246 352,-389 1450,-1455 4736,-2241 4736,433l-2963 0c42,-87 49,-250 85,-374 67,-237 154,-446 281,-636 127,-190 164,-166 198,-296 -477,112 -1150,720 -1437,1103 -661,888 -800,2210 -326,3271 511,1146 1741,1941 2998,1941 1132,0 1889,-125 2787,-600l0 -1799c-1095,733 -3607,1084 -4363,-328 -100,-186 -188,-495 -188,-765l5257 0c0,-1247 63,-2166 -664,-3253 -373,-558 -918,-1051 -1553,-1304 -753,-299 -1233,-383 -2012,-307 -862,85 -1657,493 -2288,1064l-433 519c-365,516 -776,1471 -776,2116z"/><path fill="#9A2123" d="M8211 6957c56,-2 46,13 33,-42 224,-74 311,-284 457,-472 0,-116 23,-227 -37,-331l-54 60c-78,199 -273,617 -399,785zm-945 1032c-173,122 -313,199 -393,245 -100,56 -125,45 -209,140 269,-31 408,-108 631,-212 54,-95 127,-132 151,-251l-180 78z"/><path fill="#BD4326" d="M8798 3992c17,100 35,279 46,320 8,91 0,0 16,181 6,143 8,230 -7,371 201,-216 178,-639 144,-962 -8,-190 33,-105 -74,-185 -29,120 -31,185 -125,275zm-685 -1605c14,22 42,58 62,87 41,57 86,124 131,198l48 85 2 -34c-96,-355 -97,-390 -248,-694 -55,0 -37,11 -37,-50 -58,-50 -26,-48 -72,17 73,138 65,156 78,328l36 63zm147 240l-29 -5 29 5zm-804 -1012c51,122 152,167 242,262 91,93 209,228 290,330 -56,-311 -325,-455 -482,-667l-56 -41 6 116z"/><path fill="#EA6B23" d="M7195 5485l-53 -61 -24 -175 -136 439c-125,440 -227,764 -606,929l-73 -120c-213,147 -499,355 -856,420 -547,103 -731,-117 -1116,-161 37,-34 64,-42 238,-67l-139 -60c-481,-39 -537,-177 -796,-353 71,-50 -13,-14 88,-34l222 10c101,6 212,4 312,-7 555,-63 636,-255 915,-414 225,-130 335,-66 506,-153 21,-327 -406,-516 -776,-461 -346,54 -569,310 -967,202 -251,-67 -624,-343 -701,-512 -77,-166 -26,-394 105,-473 159,-98 266,33 416,71 38,-266 15,-291 10,-532 -91,-166 -228,-203 -220,-436 340,-200 599,-28 836,-154l144 -94c7,-5 25,-2 31,-16 5,-15 19,-12 30,-17 -12,-150 -40,-210 -93,-291 -123,1 -546,-5 -649,-31 -480,-119 -298,-519 -95,-775 52,-66 90,-120 151,-180 127,-126 106,-66 175,-202 -286,-14 -436,36 -652,166 -100,59 -159,87 -247,158 -426,346 -373,13 -976,130 -300,59 -409,21 -484,-247 -100,-100 -168,-348 -207,-516 -264,176 -423,735 -443,1069 -49,824 -13,204 -353,1085 -70,182 -195,617 -200,832l96 -126c3,-4 10,-14 15,-21 -4,167 -58,426 -72,593 -16,197 -2,457 -2,662 97,-72 37,-2 85,-211 20,-83 -4,-36 26,-84 222,950 365,1603 1153,2387 318,318 582,549 999,772 282,152 955,461 1314,492 -47,-39 -99,-70 -147,-111 343,28 412,147 1070,147 -44,-30 -83,-22 -148,-111 527,0 969,-6 1387,-125 277,-80 878,-274 1007,-556 -223,104 -375,178 -625,211l-250 22c152,-123 252,-143 439,-250 -48,-40 13,-14 -59,-34l-32 15c125,-97 50,1 110,-152 -223,16 -176,65 -369,111 406,-54 1003,-701 1192,-1244 207,-598 170,-1263 -34,-1881 -3,-11 -33,-98 -35,-105 -18,-78 -11,-59 -4,-81 -45,217 -45,434 -90,657 -74,364 -63,347 -168,350 -182,4 -129,-74 -175,-296z"/><path fill="#F6A923" d="M7628 4102l-7 197c-107,-202 -210,-356 -293,-501 -40,46 -63,34 -62,210 1,290 75,577 15,1051 -16,124 -41,235 -54,359l-32 67c46,222 -7,300 175,296 105,-3 94,14 168,-350 45,-223 45,-440 90,-657 -7,22 -14,3 4,81 2,7 32,94 35,105 204,618 241,1283 34,1881 -190,543 -786,1190 -1192,1244 193,-46 146,-95 369,-111 -60,153 15,55 -110,152l32 -15c72,20 11,-6 59,34l146 -43 441 -191c261,-90 587,-372 786,-569 177,-179 462,-573 469,-899 -146,187 -233,398 -457,472 13,55 23,40 -33,42l-27 39c-116,67 -153,109 -281,142 36,-85 201,-329 267,-411 139,-173 197,-231 307,-407l187 -208c275,-550 580,-1797 333,-2210 34,323 57,746 -144,962 -77,147 -107,195 -260,255l34 -149c-54,-91 -19,-565 -141,-1048 -83,-333 -311,-757 -310,-808 123,307 87,1053 -9,1362 -166,-38 -75,11 -170,-99l-166 -386c-113,214 -42,314 -113,514 -154,-129 -79,-184 -76,-212 5,-100 28,-100 -14,-191zm443 -2123c0,61 -18,50 37,50 3,-58 18,-42 -37,-50 -61,-86 -41,20 -247,-189 -144,-147 -138,-163 -318,-250 157,212 426,356 482,667l89 117c2,-111 -11,-239 -78,-328 46,-65 14,-67 72,-17z"/><path fill="#F9E136" d="M6434 1312c121,114 173,122 282,222 107,94 180,144 278,239 125,124 362,411 453,613l48 141 -102 -94c-143,-133 -379,-291 -637,-323 551,594 827,1022 872,1992 42,92 19,92 14,191 -3,28 -78,83 76,212 72,-200 0,-299 113,-514l168 386c93,110 3,62 168,99 96,-309 132,-1055 9,-1362 -1,51 227,475 311,808 121,483 86,957 140,1048 59,-242 172,-529 153,-783l14 -175c63,-364 -54,-898 -143,-1168 -55,-163 -135,-320 -209,-453 -61,-105 -211,-332 -334,-361 152,304 152,338 248,693 -8,91 23,33 -28,86l-97 -187 -108 -154c-241,-393 -1071,-1065 -1747,-1226 -55,-4 -68,1 -89,14 54,4 79,9 147,56z"/><path fill="#E2BA8A" d="M3764 3973c133,-130 211,-168 413,-279 139,-78 338,-186 392,-289l15 -149c-10,5 -24,2 -29,17 -6,14 -24,11 -31,16l-144 94c-237,126 -496,-46 -836,154 -8,233 129,270 220,436z"/><path fill="#593738" d="M4584 3256l-15 149c44,-34 39,23 99,-110 17,-37 28,-99 31,-142 15,-182 -39,-181 -207,-188 53,81 81,141 92,291z"/></svg>