<svg xmlns="http://www.w3.org/2000/svg" viewBox="0 0 9600 9600"><path fill="#DC3A43" d="M1200 2422c175,154 1349,2241 1600,2657 -47,-900 261,-1484 743,-1851 617,-471 1189,-550 2042,-288l3094 -9c-372,-702 -727,-1149 -1351,-1613 -1493,-1110 -3594,-1078 -5040,-15 -424,312 -700,586 -1001,1009l-87 110z"/><path fill="#12AB53" d="M4552 9105l1479 -2685c-171,84 -199,118 -440,232 -1059,470 -2476,-46 -2791,-1573l-1600 -2657c-346,660 -696,1262 -707,2166 -10,837 147,1643 545,2315 536,904 1315,1615 2318,1951 299,100 816,251 1196,251z"/><path fill="#E4B300" d="M6095 6354l-57 53 -1486 2698c1575,0 2820,-514 3759,-1814 402,-556 651,-1179 766,-2021 114,-823 -119,-1811 -398,-2339l-3094 9c161,101 258,130 406,244 751,579 1030,1513 669,2384 -163,394 -339,550 -565,786z"/><path fill="#C6343C" d="M2800 5079l315 -1396 -1915 -1261 1600 2657zm0 0l0 0 0 0z"/><path fill="#109B4B" d="M4790 6819l-238 2286 1486 -2698 -1248 412zm0 0l0 0 0 0z"/><path fill="#CEA200" d="M6572 3853l2107 -922 -3094 8 987 914zm0 0l0 0 0 0z"/><circle fill="#E5F3FD" cx="4800" cy="4800" r="2030"/><circle fill="#008EF6" cx="4800" cy="4800" r="1680"/><path fill="#9A2123" d="M8373 7060c59,-2 48,13 35,-44 235,-78 326,-298 479,-495 0,-121 24,-238 -39,-347l-57 63c-81,209 -286,647 -418,823zm-990 1081c-180,128 -328,208 -411,257 -105,58 -131,47 -219,146 281,-32 428,-113 661,-222 56,-99 133,-138 158,-263l-189 82z"/><path fill="#BD4326" d="M8988 3954c19,104 37,292 48,335 9,95 0,0 17,189 6,150 9,241 -7,389 210,-226 186,-669 151,-1008 -9,-199 34,-110 -78,-194 -30,126 -32,194 -131,289zm-717 -1682c14,23 44,61 65,91 43,60 90,130 137,208l51 89 1 -36c-100,-372 -101,-408 -260,-727 -57,0 -38,12 -38,-52 -61,-53 -28,-51 -76,17 77,145 68,164 82,344l38 66zm154 252l-31 -6 31 6zm-843 -1061c54,128 160,175 254,275 95,97 219,239 304,346 -58,-326 -341,-477 -505,-699l-58 -43 5 121z"/><path fill="#EA6B23" d="M7309 5518l-56 -64 -25 -184 -142 460c-131,461 -238,801 -635,974l-77 -126c-223,154 -522,372 -896,440 -573,108 -766,-123 -1169,-169 38,-35 67,-44 249,-70l-146 -63c-504,-41 -562,-185 -834,-370 75,-52 -13,-14 93,-35l233 10c105,6 221,4 326,-7 581,-66 666,-267 959,-434 235,-136 350,-69 530,-160 22,-343 -426,-541 -813,-483 -363,56 -596,325 -1013,211 -263,-70 -654,-359 -735,-536 -80,-174 -26,-413 110,-495 167,-103 279,34 437,74 39,-279 15,-305 10,-557 -96,-174 -239,-213 -230,-457 355,-210 627,-29 875,-161l151 -99c8,-5 26,-2 32,-17 5,-15 21,-12 32,-18 -12,-157 -42,-220 -98,-304 -129,1 -572,-6 -680,-33 -503,-125 -311,-544 -99,-812 54,-69 95,-125 158,-188 134,-132 112,-69 183,-212 -299,-15 -456,38 -683,174 -105,62 -166,91 -259,165 -446,363 -390,14 -1021,137 -315,61 -429,22 -508,-259 -105,-105 -176,-365 -216,-541 -277,185 -444,770 -464,1120 -52,863 -15,214 -371,1137 -73,191 -204,646 -209,872l100 -132c3,-5 11,-15 16,-22 -4,174 -61,446 -75,621 -17,206 -3,479 -3,693 103,-75 39,-2 89,-221 21,-87 -4,-37 28,-88 232,995 383,1680 1208,2501 333,333 609,575 1046,809 296,159 1001,483 1377,515 -49,-41 -103,-73 -154,-116 360,29 431,154 1121,154 -46,-32 -87,-23 -155,-116 552,0 1015,-7 1453,-131 290,-84 920,-287 1055,-583 -233,109 -393,187 -655,221l-261 23c158,-129 264,-150 459,-262 -50,-42 14,-14 -61,-35l-34 15c131,-101 52,1 115,-159 -234,17 -185,68 -387,116 426,-56 1052,-734 1250,-1303 216,-626 178,-1323 -37,-1970 -3,-12 -34,-103 -36,-110 -19,-82 -12,-62 -4,-85 -48,227 -48,454 -95,688 -77,381 -66,364 -176,367 -190,4 -134,-78 -183,-310z"/><path fill="#F6A923" d="M7763 4069l-8 206c-111,-211 -220,-373 -307,-525 -42,48 -66,36 -65,220 1,304 79,605 17,1101 -18,130 -43,247 -58,376l-33 71c49,232 -7,314 183,310 110,-3 99,14 176,-367 47,-234 47,-461 95,-688 -8,23 -15,3 4,85 2,7 33,98 36,110 215,647 253,1344 37,1970 -200,569 -824,1247 -1250,1303 202,-48 153,-99 387,-116 -63,160 16,58 -115,159l34 -15c75,21 11,-7 61,35l153 -45 462 -200c273,-94 615,-390 823,-596 186,-187 484,-600 492,-942 -153,196 -244,417 -479,495 13,57 24,42 -35,44l-27 41c-123,70 -161,114 -295,148 37,-89 210,-344 279,-430 146,-181 207,-242 322,-427l196 -218c288,-576 607,-1882 349,-2315 35,339 59,782 -151,1008 -81,154 -112,204 -273,267l37 -156c-57,-95 -21,-592 -149,-1098 -87,-349 -325,-793 -324,-846 128,321 91,1103 -10,1427 -174,-40 -78,11 -177,-104l-175 -405c-118,225 -44,329 -118,539 -162,-135 -82,-193 -80,-222 5,-105 30,-105 -14,-200zm464 -2224c0,64 -19,52 38,52 4,-61 19,-44 -38,-52 -64,-90 -43,21 -259,-198 -150,-154 -145,-171 -333,-262 164,222 447,373 505,699l93 122c3,-116 -12,-250 -82,-344 48,-68 15,-70 76,-17z"/><path fill="#F9E136" d="M6512 1146c126,119 181,128 296,232 111,99 188,151 290,251 131,130 380,430 475,642l50 148 -107 -99c-149,-139 -397,-305 -666,-338 576,622 865,1071 913,2087 44,96 19,96 14,200 -2,29 -82,87 80,222 75,-210 0,-313 118,-539l176 405c98,115 3,65 176,104 101,-324 138,-1106 10,-1427 -1,53 237,497 325,846 127,506 91,1003 148,1098 61,-253 179,-554 159,-820l16 -184c66,-381 -58,-940 -151,-1223 -57,-171 -141,-335 -219,-475 -64,-110 -221,-348 -350,-378 160,319 160,354 260,726 -8,95 24,35 -29,90l-102 -196 -112 -161c-253,-412 -1122,-1116 -1831,-1284 -58,-5 -71,1 -93,14 56,4 82,10 154,59z"/><path fill="#E2BA8A" d="M3715 3934c139,-137 221,-176 432,-293 146,-81 354,-195 411,-302l16 -157c-10,6 -26,3 -31,18 -6,15 -24,12 -32,17l-151 99c-248,132 -520,-49 -875,161 -9,244 134,283 230,457z"/><path fill="#593738" d="M4574 3182l-16 157c46,-36 41,24 104,-116 17,-38 29,-103 33,-148 15,-191 -42,-190 -218,-197 56,84 86,147 97,304z"/></svg>