<svg xmlns="http://www.w3.org/2000/svg" viewBox="0 0 9600 9600"><path fill="#F9C53B" d="M5437 5358c-39 14-73 10-110-3-37-12-64-35-82-62l-289-435-581 1730 2115 710c112 37 236-24 273-136l872-2598-2198 794zm-741-753l81-242 306-911 65-193 403-1203-2934-434-868 723-879 2620 483 1365 2491 814 244-728 65-192 543-1619zm-1171 97c-35 64-71 128-110 184-40 56-85 109-133 149-50 45-97 84-149 115s-104 62-157 78c-54 17-108 33-164 35s-112 4-163-6c-52-11-110-23-164-48-53-25-101-48-146-77-46-29-83-62-118-102-35-39-62-83-89-126-24-50-49-99-66-153-16-54-30-114-39-172-8-58-8-120-7-182 0-62 8-128 23-192 14-64 31-135 54-203s52-134 81-200c27-60 60-118 100-174 37-50 74-99 118-147 41-41 83-82 130-121 48-40 98-64 148-89 49-25 103-41 155-51 52-11 109-19 163-15 54 5 114 11 176 32 58 12 105 35 153 58 47 23 91 58 128 91 37 34 72 73 105 118 33 46 58 96 81 152 22 56 37 116 43 180 8 58 12 128 12 190-3 68-11 134-24 213-16 70-35 147-60 221-15 106-46 178-81 242zm1539-166l363 542 2317-837c21-103-39-213-138-246l-2121-712-421 1253zm-1784-441c6-39 6-80 6-122-2-35-10-72-18-109-10-31-21-62-33-87s-31-52-51-73c-21-20-44-35-67-49-22-15-53-25-78-34-31-10-64-14-91-16-27-3-56 1-87 12-29 4-56 22-87 33-27 18-54 37-83 62-29 24-50 45-74 78-23 27-48 60-65 89-18 35-37 70-56 105-18 35-33 79-48 122-16 50-31 93-39 139-9 45-15 84-21 124-6 39-7 80-5 116 2 35 11 72 19 109 10 31 20 62 33 87 12 25 31 52 45 71 21 20 35 39 58 54 23 14 45 29 76 39s56 19 83 21 54 4 83 0 52-10 83-20c25-13 49-25 78-50 27-19 56-43 79-70s48-60 73-93 45-74 66-116c21-41 38-91 54-140 17-50 34-100 42-145 17-50 25-95 25-137z"/><path fill="#3478ED" d="M2183 4446l-6 5c1 0 8-4 6-5zm2980 4313c-58 39-104 66-167 104-204 119-141 105 86 105 257 0 498-46 707-105 160-46 532-198 607-205-94 141-382 262-445 348 382 0 899-253 1218-483 118-85 354-286 447-403 65-81 126-151 195-230 38-43 56-78 89-124l261-396c151-254 303-596 397-878 358-1081 341-2204-53-3267-246-665-623-1148-1129-1576-388-327-1019-589-1526-697-662-140-1376-136-2024 15 75-143 143-177 193-251-190 44-411 234-541 348l-23-16c0-7 10-19 11-16 7 21 29-136 180-322 153-188 233-194 257-284-286 137-439 111-779 516-314 373-131 294-426 443-98 50-192 109-282 163-393 236-878 682-1138 1065-65 97-107 172-169 275-258 433-375 958-375 1558 0 718 334 1690 598 2146 252 435 542 827 948 1120 95 68 322 222 444 251-5-64-232-494-232-1005 141 94 527 541 928 541-52-78-127-123-188-199-46-55-189-335-196-422l-1324-435c-159-51-147-26-232-270-195-560-263-866-263-1515 47 32 59 52 101 92 120 113 238 180 382 256-17-62-68-117-103-187-152-298-187-522-187-876 0-350 194-879 343-1031 76-77 216-13 416 21 88 15 170 38 246 44 21 247 47 174-24 536-19 93-53 241-53 353 0 209 52 197 77 290 98-27 62-60 152-158 137-150 741-469 977-627 258-173 184-148 470-99 171 30 349 66 538 100l1076 199c108 18 171 32 277 52 89 16 202 43 278 50 5 61 58 181 80 248 126 379 152 603 152 1027l-19 135c-38 163-54 278-108 433-26 72-50 123-81 191-41 92-93 142 48 109 209-48 375-173 533-302 61-48 102-87 168-122 0 269-50 514-94 737-196 979-862 2069-1699 2630z"/></svg>